<mxfile host="app.diagrams.net" modified="2024-03-22T17:34:06.794Z" agent="Mozilla/5.0 (Windows NT 10.0; Win64; x64) AppleWebKit/537.36 (KHTML, like Gecko) Chrome/122.0.0.0 Safari/537.36" etag="tHv-OMRnaQTq8lvKkhjt" version="24.0.1" type="device">
  <diagram name="Page-1" id="gqRWQc0E1wpKkJzFoLSZ">
    <mxGraphModel dx="1050" dy="522" grid="1" gridSize="10" guides="1" tooltips="1" connect="1" arrows="1" fold="1" page="1" pageScale="1" pageWidth="1100" pageHeight="850" math="0" shadow="0">
      <root>
        <mxCell id="0" />
        <mxCell id="1" parent="0" />
        <mxCell id="wRg4wG9O-f1D6kQgpO2t-1" value="" style="html=1;verticalLabelPosition=bottom;align=center;labelBackgroundColor=#ffffff;verticalAlign=top;strokeWidth=2;shadow=0;dashed=0;shape=mxgraph.ios7.icons.folder;" vertex="1" parent="1">
          <mxGeometry x="230" y="50" width="190" height="139.5" as="geometry" />
        </mxCell>
        <mxCell id="wRg4wG9O-f1D6kQgpO2t-2" value="" style="rounded=0;whiteSpace=wrap;html=1;" vertex="1" parent="1">
          <mxGeometry x="90" y="230" width="120" height="60" as="geometry" />
        </mxCell>
      </root>
    </mxGraphModel>
  </diagram>
</mxfile>
